<?xml version="1.0" encoding="utf-8" standalone="no"?>
<!DOCTYPE svg PUBLIC "-//W3C//DTD SVG 1.1//EN"
  "http://www.w3.org/Graphics/SVG/1.1/DTD/svg11.dtd">
<!-- Created with matplotlib (https://matplotlib.org/) -->
<svg height="720pt" version="1.1" viewBox="0 0 1440 720" width="1440pt" xmlns="http://www.w3.org/2000/svg" xmlns:xlink="http://www.w3.org/1999/xlink">
 <defs>
  <style type="text/css">
*{stroke-linecap:butt;stroke-linejoin:round;}
  </style>
 </defs>
 <g id="figure_1">
  <g id="patch_1">
   <path d="M 0 720 
L 1440 720 
L 1440 0 
L 0 0 
z
" style="fill:#ffffff;"/>
  </g>
  <g id="axes_1">
   <g id="patch_2">
    <path d="M 45.52 242.116113 
L 1429.2 242.116113 
L 1429.2 72 
L 45.52 72 
z
" style="fill:#ffffff;"/>
   </g>
   <g id="matplotlib.axis_1">
    <g id="xtick_1">
     <g id="line2d_1">
      <defs>
       <path d="M 0 0 
L 0 3.5 
" id="md7ac6de9de" style="stroke:#000000;stroke-width:0.8;"/>
      </defs>
      <g>
       <use style="stroke:#000000;stroke-width:0.8;" x="108.414545" xlink:href="#md7ac6de9de" y="242.116113"/>
      </g>
     </g>
     <g id="text_1">
      <!-- 0 -->
      <defs>
       <path d="M 31.78125 66.40625 
Q 24.171875 66.40625 20.328125 58.90625 
Q 16.5 51.421875 16.5 36.375 
Q 16.5 21.390625 20.328125 13.890625 
Q 24.171875 6.390625 31.78125 6.390625 
Q 39.453125 6.390625 43.28125 13.890625 
Q 47.125 21.390625 47.125 36.375 
Q 47.125 51.421875 43.28125 58.90625 
Q 39.453125 66.40625 31.78125 66.40625 
z
M 31.78125 74.21875 
Q 44.046875 74.21875 50.515625 64.515625 
Q 56.984375 54.828125 56.984375 36.375 
Q 56.984375 17.96875 50.515625 8.265625 
Q 44.046875 -1.421875 31.78125 -1.421875 
Q 19.53125 -1.421875 13.0625 8.265625 
Q 6.59375 17.96875 6.59375 36.375 
Q 6.59375 54.828125 13.0625 64.515625 
Q 19.53125 74.21875 31.78125 74.21875 
z
" id="DejaVuSans-48"/>
      </defs>
      <g transform="translate(102.917345 262.246213)scale(0.1728 -0.1728)">
       <use xlink:href="#DejaVuSans-48"/>
      </g>
     </g>
    </g>
    <g id="xtick_2">
     <g id="line2d_2">
      <g>
       <use style="stroke:#000000;stroke-width:0.8;" x="360.834126" xlink:href="#md7ac6de9de" y="242.116113"/>
      </g>
     </g>
     <g id="text_2">
      <!-- 2 -->
      <defs>
       <path d="M 19.1875 8.296875 
L 53.609375 8.296875 
L 53.609375 0 
L 7.328125 0 
L 7.328125 8.296875 
Q 12.9375 14.109375 22.625 23.890625 
Q 32.328125 33.6875 34.8125 36.53125 
Q 39.546875 41.84375 41.421875 45.53125 
Q 43.3125 49.21875 43.3125 52.78125 
Q 43.3125 58.59375 39.234375 62.25 
Q 35.15625 65.921875 28.609375 65.921875 
Q 23.96875 65.921875 18.8125 64.3125 
Q 13.671875 62.703125 7.8125 59.421875 
L 7.8125 69.390625 
Q 13.765625 71.78125 18.9375 73 
Q 24.125 74.21875 28.421875 74.21875 
Q 39.75 74.21875 46.484375 68.546875 
Q 53.21875 62.890625 53.21875 53.421875 
Q 53.21875 48.921875 51.53125 44.890625 
Q 49.859375 40.875 45.40625 35.40625 
Q 44.1875 33.984375 37.640625 27.21875 
Q 31.109375 20.453125 19.1875 8.296875 
z
" id="DejaVuSans-50"/>
      </defs>
      <g transform="translate(355.336926 262.246213)scale(0.1728 -0.1728)">
       <use xlink:href="#DejaVuSans-50"/>
      </g>
     </g>
    </g>
    <g id="xtick_3">
     <g id="line2d_3">
      <g>
       <use style="stroke:#000000;stroke-width:0.8;" x="613.253706" xlink:href="#md7ac6de9de" y="242.116113"/>
      </g>
     </g>
     <g id="text_3">
      <!-- 4 -->
      <defs>
       <path d="M 37.796875 64.3125 
L 12.890625 25.390625 
L 37.796875 25.390625 
z
M 35.203125 72.90625 
L 47.609375 72.90625 
L 47.609375 25.390625 
L 58.015625 25.390625 
L 58.015625 17.1875 
L 47.609375 17.1875 
L 47.609375 0 
L 37.796875 0 
L 37.796875 17.1875 
L 4.890625 17.1875 
L 4.890625 26.703125 
z
" id="DejaVuSans-52"/>
      </defs>
      <g transform="translate(607.756506 262.246213)scale(0.1728 -0.1728)">
       <use xlink:href="#DejaVuSans-52"/>
      </g>
     </g>
    </g>
    <g id="xtick_4">
     <g id="line2d_4">
      <g>
       <use style="stroke:#000000;stroke-width:0.8;" x="865.673287" xlink:href="#md7ac6de9de" y="242.116113"/>
      </g>
     </g>
     <g id="text_4">
      <!-- 6 -->
      <defs>
       <path d="M 33.015625 40.375 
Q 26.375 40.375 22.484375 35.828125 
Q 18.609375 31.296875 18.609375 23.390625 
Q 18.609375 15.53125 22.484375 10.953125 
Q 26.375 6.390625 33.015625 6.390625 
Q 39.65625 6.390625 43.53125 10.953125 
Q 47.40625 15.53125 47.40625 23.390625 
Q 47.40625 31.296875 43.53125 35.828125 
Q 39.65625 40.375 33.015625 40.375 
z
M 52.59375 71.296875 
L 52.59375 62.3125 
Q 48.875 64.0625 45.09375 64.984375 
Q 41.3125 65.921875 37.59375 65.921875 
Q 27.828125 65.921875 22.671875 59.328125 
Q 17.53125 52.734375 16.796875 39.40625 
Q 19.671875 43.65625 24.015625 45.921875 
Q 28.375 48.1875 33.59375 48.1875 
Q 44.578125 48.1875 50.953125 41.515625 
Q 57.328125 34.859375 57.328125 23.390625 
Q 57.328125 12.15625 50.6875 5.359375 
Q 44.046875 -1.421875 33.015625 -1.421875 
Q 20.359375 -1.421875 13.671875 8.265625 
Q 6.984375 17.96875 6.984375 36.375 
Q 6.984375 53.65625 15.1875 63.9375 
Q 23.390625 74.21875 37.203125 74.21875 
Q 40.921875 74.21875 44.703125 73.484375 
Q 48.484375 72.75 52.59375 71.296875 
z
" id="DejaVuSans-54"/>
      </defs>
      <g transform="translate(860.176087 262.246213)scale(0.1728 -0.1728)">
       <use xlink:href="#DejaVuSans-54"/>
      </g>
     </g>
    </g>
    <g id="xtick_5">
     <g id="line2d_5">
      <g>
       <use style="stroke:#000000;stroke-width:0.8;" x="1118.092867" xlink:href="#md7ac6de9de" y="242.116113"/>
      </g>
     </g>
     <g id="text_5">
      <!-- 8 -->
      <defs>
       <path d="M 31.78125 34.625 
Q 24.75 34.625 20.71875 30.859375 
Q 16.703125 27.09375 16.703125 20.515625 
Q 16.703125 13.921875 20.71875 10.15625 
Q 24.75 6.390625 31.78125 6.390625 
Q 38.8125 6.390625 42.859375 10.171875 
Q 46.921875 13.96875 46.921875 20.515625 
Q 46.921875 27.09375 42.890625 30.859375 
Q 38.875 34.625 31.78125 34.625 
z
M 21.921875 38.8125 
Q 15.578125 40.375 12.03125 44.71875 
Q 8.5 49.078125 8.5 55.328125 
Q 8.5 64.0625 14.71875 69.140625 
Q 20.953125 74.21875 31.78125 74.21875 
Q 42.671875 74.21875 48.875 69.140625 
Q 55.078125 64.0625 55.078125 55.328125 
Q 55.078125 49.078125 51.53125 44.71875 
Q 48 40.375 41.703125 38.8125 
Q 48.828125 37.15625 52.796875 32.3125 
Q 56.78125 27.484375 56.78125 20.515625 
Q 56.78125 9.90625 50.3125 4.234375 
Q 43.84375 -1.421875 31.78125 -1.421875 
Q 19.734375 -1.421875 13.25 4.234375 
Q 6.78125 9.90625 6.78125 20.515625 
Q 6.78125 27.484375 10.78125 32.3125 
Q 14.796875 37.15625 21.921875 38.8125 
z
M 18.3125 54.390625 
Q 18.3125 48.734375 21.84375 45.5625 
Q 25.390625 42.390625 31.78125 42.390625 
Q 38.140625 42.390625 41.71875 45.5625 
Q 45.3125 48.734375 45.3125 54.390625 
Q 45.3125 60.0625 41.71875 63.234375 
Q 38.140625 66.40625 31.78125 66.40625 
Q 25.390625 66.40625 21.84375 63.234375 
Q 18.3125 60.0625 18.3125 54.390625 
z
" id="DejaVuSans-56"/>
      </defs>
      <g transform="translate(1112.595667 262.246213)scale(0.1728 -0.1728)">
       <use xlink:href="#DejaVuSans-56"/>
      </g>
     </g>
    </g>
    <g id="xtick_6">
     <g id="line2d_6">
      <g>
       <use style="stroke:#000000;stroke-width:0.8;" x="1370.512448" xlink:href="#md7ac6de9de" y="242.116113"/>
      </g>
     </g>
     <g id="text_6">
      <!-- 10 -->
      <defs>
       <path d="M 12.40625 8.296875 
L 28.515625 8.296875 
L 28.515625 63.921875 
L 10.984375 60.40625 
L 10.984375 69.390625 
L 28.421875 72.90625 
L 38.28125 72.90625 
L 38.28125 8.296875 
L 54.390625 8.296875 
L 54.390625 0 
L 12.40625 0 
z
" id="DejaVuSans-49"/>
      </defs>
      <g transform="translate(1359.518048 262.246213)scale(0.1728 -0.1728)">
       <use xlink:href="#DejaVuSans-49"/>
       <use x="63.623047" xlink:href="#DejaVuSans-48"/>
      </g>
     </g>
    </g>
   </g>
   <g id="matplotlib.axis_2">
    <g id="ytick_1">
     <g id="line2d_7">
      <defs>
       <path d="M 0 0 
L -3.5 0 
" id="m6d7a247d2e" style="stroke:#000000;stroke-width:0.8;"/>
      </defs>
      <g>
       <use style="stroke:#000000;stroke-width:0.8;" x="45.52" xlink:href="#m6d7a247d2e" y="232.989542"/>
      </g>
     </g>
     <g id="text_7">
      <!-- 0.0 -->
      <defs>
       <path d="M 10.6875 12.40625 
L 21 12.40625 
L 21 0 
L 10.6875 0 
z
" id="DejaVuSans-46"/>
      </defs>
      <g transform="translate(11.0394 239.554592)scale(0.1728 -0.1728)">
       <use xlink:href="#DejaVuSans-48"/>
       <use x="63.623047" xlink:href="#DejaVuSans-46"/>
       <use x="95.410156" xlink:href="#DejaVuSans-48"/>
      </g>
     </g>
    </g>
    <g id="ytick_2">
     <g id="line2d_8">
      <g>
       <use style="stroke:#000000;stroke-width:0.8;" x="45.52" xlink:href="#m6d7a247d2e" y="157.058056"/>
      </g>
     </g>
     <g id="text_8">
      <!-- 0.5 -->
      <defs>
       <path d="M 10.796875 72.90625 
L 49.515625 72.90625 
L 49.515625 64.59375 
L 19.828125 64.59375 
L 19.828125 46.734375 
Q 21.96875 47.46875 24.109375 47.828125 
Q 26.265625 48.1875 28.421875 48.1875 
Q 40.625 48.1875 47.75 41.5 
Q 54.890625 34.8125 54.890625 23.390625 
Q 54.890625 11.625 47.5625 5.09375 
Q 40.234375 -1.421875 26.90625 -1.421875 
Q 22.3125 -1.421875 17.546875 -0.640625 
Q 12.796875 0.140625 7.71875 1.703125 
L 7.71875 11.625 
Q 12.109375 9.234375 16.796875 8.0625 
Q 21.484375 6.890625 26.703125 6.890625 
Q 35.15625 6.890625 40.078125 11.328125 
Q 45.015625 15.765625 45.015625 23.390625 
Q 45.015625 31 40.078125 35.4375 
Q 35.15625 39.890625 26.703125 39.890625 
Q 22.75 39.890625 18.8125 39.015625 
Q 14.890625 38.140625 10.796875 36.28125 
z
" id="DejaVuSans-53"/>
      </defs>
      <g transform="translate(11.0394 163.623106)scale(0.1728 -0.1728)">
       <use xlink:href="#DejaVuSans-48"/>
       <use x="63.623047" xlink:href="#DejaVuSans-46"/>
       <use x="95.410156" xlink:href="#DejaVuSans-53"/>
      </g>
     </g>
    </g>
    <g id="ytick_3">
     <g id="line2d_9">
      <g>
       <use style="stroke:#000000;stroke-width:0.8;" x="45.52" xlink:href="#m6d7a247d2e" y="81.12657"/>
      </g>
     </g>
     <g id="text_9">
      <!-- 1.0 -->
      <g transform="translate(11.0394 87.69162)scale(0.1728 -0.1728)">
       <use xlink:href="#DejaVuSans-49"/>
       <use x="63.623047" xlink:href="#DejaVuSans-46"/>
       <use x="95.410156" xlink:href="#DejaVuSans-48"/>
      </g>
     </g>
    </g>
   </g>
   <g id="line2d_10">
    <path clip-path="url(#pb880d07df6)" d="M 108.414545 232.989542 
L 356.627133 232.989542 
L 360.834126 81.12657 
L 609.046713 81.12657 
L 613.253706 232.989542 
L 861.466294 232.989542 
L 865.673287 81.12657 
L 1113.885874 81.12657 
L 1118.092867 232.989542 
L 1366.305455 232.989542 
L 1366.305455 232.989542 
" style="fill:none;stroke:#1f77b4;stroke-linecap:square;stroke-width:1.5;"/>
   </g>
   <g id="line2d_11">
    <path clip-path="url(#pb880d07df6)" d="M 108.414545 159.082896 
L 125.242517 175.115525 
L 133.656503 182.878689 
L 142.07049 190.358956 
L 150.484476 197.474372 
L 158.898462 204.146978 
L 167.312448 210.303668 
L 171.519441 213.167224 
L 175.726434 215.876988 
L 179.933427 218.425534 
L 184.14042 220.805875 
L 188.347413 223.011489 
L 192.554406 225.036329 
L 196.761399 226.874844 
L 200.968392 228.521997 
L 205.175385 229.973273 
L 209.382378 231.224692 
L 213.589371 232.272826 
L 217.796364 233.114802 
L 222.003357 233.748312 
L 226.21035 234.171618 
L 230.417343 234.383562 
L 234.624336 234.383562 
L 238.831329 234.171618 
L 243.038322 233.748312 
L 247.245315 233.114802 
L 251.452308 232.272826 
L 255.659301 231.224692 
L 259.866294 229.973273 
L 264.073287 228.521997 
L 268.28028 226.874844 
L 272.487273 225.036329 
L 276.694266 223.011489 
L 280.901259 220.805875 
L 285.108252 218.425534 
L 289.315245 215.876988 
L 293.522238 213.167224 
L 297.729231 210.303668 
L 301.936224 207.29417 
L 310.35021 200.870719 
L 318.764196 193.967247 
L 327.178182 186.65939 
L 335.592168 179.027215 
L 348.213147 167.15452 
L 377.662098 139.000588 
L 386.076084 131.237424 
L 394.49007 123.757157 
L 402.904056 116.641741 
L 411.318042 109.969135 
L 419.732028 103.812445 
L 423.939021 100.948889 
L 428.146014 98.239125 
L 432.353007 95.690579 
L 436.56 93.310237 
L 440.766993 91.104624 
L 444.973986 89.079784 
L 449.180979 87.241268 
L 453.387972 85.594115 
L 457.594965 84.14284 
L 461.801958 82.89142 
L 466.008951 81.843286 
L 470.215944 81.001311 
L 474.422937 80.367801 
L 478.62993 79.944494 
L 482.836923 79.732551 
L 487.043916 79.732551 
L 491.250909 79.944494 
L 495.457902 80.367801 
L 499.664895 81.001311 
L 503.871888 81.843286 
L 508.078881 82.89142 
L 512.285874 84.14284 
L 516.492867 85.594115 
L 520.69986 87.241268 
L 524.906853 89.079784 
L 529.113846 91.104624 
L 533.320839 93.310237 
L 537.527832 95.690579 
L 541.734825 98.239125 
L 545.941818 100.948889 
L 550.148811 103.812445 
L 554.355804 106.821943 
L 562.76979 113.245394 
L 571.183776 120.148866 
L 579.597762 127.456723 
L 588.011748 135.088898 
L 600.632727 146.961593 
L 630.081678 175.115525 
L 638.495664 182.878689 
L 646.90965 190.358956 
L 655.323636 197.474372 
L 663.737622 204.146978 
L 672.151608 210.303668 
L 676.358601 213.167224 
L 680.565594 215.876988 
L 684.772587 218.425534 
L 688.97958 220.805875 
L 693.186573 223.011489 
L 697.393566 225.036329 
L 701.600559 226.874844 
L 705.807552 228.521997 
L 710.014545 229.973273 
L 714.221538 231.224692 
L 718.428531 232.272826 
L 722.635524 233.114802 
L 726.842517 233.748312 
L 731.04951 234.171618 
L 735.256503 234.383562 
L 739.463497 234.383562 
L 743.67049 234.171618 
L 747.877483 233.748312 
L 752.084476 233.114802 
L 756.291469 232.272826 
L 760.498462 231.224692 
L 764.705455 229.973273 
L 768.912448 228.521997 
L 773.119441 226.874844 
L 777.326434 225.036329 
L 781.533427 223.011489 
L 785.74042 220.805875 
L 789.947413 218.425534 
L 794.154406 215.876988 
L 798.361399 213.167224 
L 802.568392 210.303668 
L 806.775385 207.29417 
L 815.189371 200.870719 
L 823.603357 193.967247 
L 832.017343 186.65939 
L 840.431329 179.027215 
L 853.052308 167.15452 
L 882.501259 139.000588 
L 890.915245 131.237424 
L 899.329231 123.757157 
L 907.743217 116.641741 
L 916.157203 109.969135 
L 924.571189 103.812445 
L 928.778182 100.948889 
L 932.985175 98.239125 
L 937.192168 95.690579 
L 941.399161 93.310237 
L 945.606154 91.104624 
L 949.813147 89.079784 
L 954.02014 87.241268 
L 958.227133 85.594115 
L 962.434126 84.14284 
L 966.641119 82.89142 
L 970.848112 81.843286 
L 975.055105 81.001311 
L 979.262098 80.367801 
L 983.469091 79.944494 
L 987.676084 79.732551 
L 991.883077 79.732551 
L 996.09007 79.944494 
L 1000.297063 80.367801 
L 1004.504056 81.001311 
L 1008.711049 81.843286 
L 1012.918042 82.89142 
L 1017.125035 84.14284 
L 1021.332028 85.594115 
L 1025.539021 87.241268 
L 1029.746014 89.079784 
L 1033.953007 91.104624 
L 1038.16 93.310237 
L 1042.366993 95.690579 
L 1046.573986 98.239125 
L 1050.780979 100.948889 
L 1054.987972 103.812445 
L 1059.194965 106.821943 
L 1067.608951 113.245394 
L 1076.022937 120.148866 
L 1084.436923 127.456723 
L 1092.850909 135.088898 
L 1105.471888 146.961593 
L 1134.920839 175.115525 
L 1143.334825 182.878689 
L 1151.748811 190.358956 
L 1160.162797 197.474372 
L 1168.576783 204.146978 
L 1176.990769 210.303668 
L 1181.197762 213.167224 
L 1185.404755 215.876988 
L 1189.611748 218.425534 
L 1193.818741 220.805875 
L 1198.025734 223.011489 
L 1202.232727 225.036329 
L 1206.43972 226.874844 
L 1210.646713 228.521997 
L 1214.853706 229.973273 
L 1219.060699 231.224692 
L 1223.267692 232.272826 
L 1227.474685 233.114802 
L 1231.681678 233.748312 
L 1235.888671 234.171618 
L 1240.095664 234.383562 
L 1244.302657 234.383562 
L 1248.50965 234.171618 
L 1252.716643 233.748312 
L 1256.923636 233.114802 
L 1261.130629 232.272826 
L 1265.337622 231.224692 
L 1269.544615 229.973273 
L 1273.751608 228.521997 
L 1277.958601 226.874844 
L 1282.165594 225.036329 
L 1286.372587 223.011489 
L 1290.57958 220.805875 
L 1294.786573 218.425534 
L 1298.993566 215.876988 
L 1303.200559 213.167224 
L 1307.407552 210.303668 
L 1311.614545 207.29417 
L 1320.028531 200.870719 
L 1328.442517 193.967247 
L 1336.856503 186.65939 
L 1345.27049 179.027215 
L 1357.891469 167.15452 
L 1366.305455 159.082896 
L 1366.305455 159.082896 
" style="fill:none;stroke:#ff7f0e;stroke-linecap:square;stroke-width:1.5;"/>
   </g>
   <g id="patch_3">
    <path d="M 45.52 242.116113 
L 45.52 72 
" style="fill:none;stroke:#000000;stroke-linecap:square;stroke-linejoin:miter;stroke-width:0.8;"/>
   </g>
   <g id="patch_4">
    <path d="M 1429.2 242.116113 
L 1429.2 72 
" style="fill:none;stroke:#000000;stroke-linecap:square;stroke-linejoin:miter;stroke-width:0.8;"/>
   </g>
   <g id="patch_5">
    <path d="M 45.52 242.116113 
L 1429.2 242.116113 
" style="fill:none;stroke:#000000;stroke-linecap:square;stroke-linejoin:miter;stroke-width:0.8;"/>
   </g>
   <g id="patch_6">
    <path d="M 45.52 72 
L 1429.2 72 
" style="fill:none;stroke:#000000;stroke-linecap:square;stroke-linejoin:miter;stroke-width:0.8;"/>
   </g>
   <g id="text_10">
    <!-- number of fourier terms: 1 -->
    <defs>
     <path d="M 54.890625 33.015625 
L 54.890625 0 
L 45.90625 0 
L 45.90625 32.71875 
Q 45.90625 40.484375 42.875 44.328125 
Q 39.84375 48.1875 33.796875 48.1875 
Q 26.515625 48.1875 22.3125 43.546875 
Q 18.109375 38.921875 18.109375 30.90625 
L 18.109375 0 
L 9.078125 0 
L 9.078125 54.6875 
L 18.109375 54.6875 
L 18.109375 46.1875 
Q 21.34375 51.125 25.703125 53.5625 
Q 30.078125 56 35.796875 56 
Q 45.21875 56 50.046875 50.171875 
Q 54.890625 44.34375 54.890625 33.015625 
z
" id="DejaVuSans-110"/>
     <path d="M 8.5 21.578125 
L 8.5 54.6875 
L 17.484375 54.6875 
L 17.484375 21.921875 
Q 17.484375 14.15625 20.5 10.265625 
Q 23.53125 6.390625 29.59375 6.390625 
Q 36.859375 6.390625 41.078125 11.03125 
Q 45.3125 15.671875 45.3125 23.6875 
L 45.3125 54.6875 
L 54.296875 54.6875 
L 54.296875 0 
L 45.3125 0 
L 45.3125 8.40625 
Q 42.046875 3.421875 37.71875 1 
Q 33.40625 -1.421875 27.6875 -1.421875 
Q 18.265625 -1.421875 13.375 4.4375 
Q 8.5 10.296875 8.5 21.578125 
z
M 31.109375 56 
z
" id="DejaVuSans-117"/>
     <path d="M 52 44.1875 
Q 55.375 50.25 60.0625 53.125 
Q 64.75 56 71.09375 56 
Q 79.640625 56 84.28125 50.015625 
Q 88.921875 44.046875 88.921875 33.015625 
L 88.921875 0 
L 79.890625 0 
L 79.890625 32.71875 
Q 79.890625 40.578125 77.09375 44.375 
Q 74.3125 48.1875 68.609375 48.1875 
Q 61.625 48.1875 57.5625 43.546875 
Q 53.515625 38.921875 53.515625 30.90625 
L 53.515625 0 
L 44.484375 0 
L 44.484375 32.71875 
Q 44.484375 40.625 41.703125 44.40625 
Q 38.921875 48.1875 33.109375 48.1875 
Q 26.21875 48.1875 22.15625 43.53125 
Q 18.109375 38.875 18.109375 30.90625 
L 18.109375 0 
L 9.078125 0 
L 9.078125 54.6875 
L 18.109375 54.6875 
L 18.109375 46.1875 
Q 21.1875 51.21875 25.484375 53.609375 
Q 29.78125 56 35.6875 56 
Q 41.65625 56 45.828125 52.96875 
Q 50 49.953125 52 44.1875 
z
" id="DejaVuSans-109"/>
     <path d="M 48.6875 27.296875 
Q 48.6875 37.203125 44.609375 42.84375 
Q 40.53125 48.484375 33.40625 48.484375 
Q 26.265625 48.484375 22.1875 42.84375 
Q 18.109375 37.203125 18.109375 27.296875 
Q 18.109375 17.390625 22.1875 11.75 
Q 26.265625 6.109375 33.40625 6.109375 
Q 40.53125 6.109375 44.609375 11.75 
Q 48.6875 17.390625 48.6875 27.296875 
z
M 18.109375 46.390625 
Q 20.953125 51.265625 25.265625 53.625 
Q 29.59375 56 35.59375 56 
Q 45.5625 56 51.78125 48.09375 
Q 58.015625 40.1875 58.015625 27.296875 
Q 58.015625 14.40625 51.78125 6.484375 
Q 45.5625 -1.421875 35.59375 -1.421875 
Q 29.59375 -1.421875 25.265625 0.953125 
Q 20.953125 3.328125 18.109375 8.203125 
L 18.109375 0 
L 9.078125 0 
L 9.078125 75.984375 
L 18.109375 75.984375 
z
" id="DejaVuSans-98"/>
     <path d="M 56.203125 29.59375 
L 56.203125 25.203125 
L 14.890625 25.203125 
Q 15.484375 15.921875 20.484375 11.0625 
Q 25.484375 6.203125 34.421875 6.203125 
Q 39.59375 6.203125 44.453125 7.46875 
Q 49.3125 8.734375 54.109375 11.28125 
L 54.109375 2.78125 
Q 49.265625 0.734375 44.1875 -0.34375 
Q 39.109375 -1.421875 33.890625 -1.421875 
Q 20.796875 -1.421875 13.15625 6.1875 
Q 5.515625 13.8125 5.515625 26.8125 
Q 5.515625 40.234375 12.765625 48.109375 
Q 20.015625 56 32.328125 56 
Q 43.359375 56 49.78125 48.890625 
Q 56.203125 41.796875 56.203125 29.59375 
z
M 47.21875 32.234375 
Q 47.125 39.59375 43.09375 43.984375 
Q 39.0625 48.390625 32.421875 48.390625 
Q 24.90625 48.390625 20.390625 44.140625 
Q 15.875 39.890625 15.1875 32.171875 
z
" id="DejaVuSans-101"/>
     <path d="M 41.109375 46.296875 
Q 39.59375 47.171875 37.8125 47.578125 
Q 36.03125 48 33.890625 48 
Q 26.265625 48 22.1875 43.046875 
Q 18.109375 38.09375 18.109375 28.8125 
L 18.109375 0 
L 9.078125 0 
L 9.078125 54.6875 
L 18.109375 54.6875 
L 18.109375 46.1875 
Q 20.953125 51.171875 25.484375 53.578125 
Q 30.03125 56 36.53125 56 
Q 37.453125 56 38.578125 55.875 
Q 39.703125 55.765625 41.0625 55.515625 
z
" id="DejaVuSans-114"/>
     <path id="DejaVuSans-32"/>
     <path d="M 30.609375 48.390625 
Q 23.390625 48.390625 19.1875 42.75 
Q 14.984375 37.109375 14.984375 27.296875 
Q 14.984375 17.484375 19.15625 11.84375 
Q 23.34375 6.203125 30.609375 6.203125 
Q 37.796875 6.203125 41.984375 11.859375 
Q 46.1875 17.53125 46.1875 27.296875 
Q 46.1875 37.015625 41.984375 42.703125 
Q 37.796875 48.390625 30.609375 48.390625 
z
M 30.609375 56 
Q 42.328125 56 49.015625 48.375 
Q 55.71875 40.765625 55.71875 27.296875 
Q 55.71875 13.875 49.015625 6.21875 
Q 42.328125 -1.421875 30.609375 -1.421875 
Q 18.84375 -1.421875 12.171875 6.21875 
Q 5.515625 13.875 5.515625 27.296875 
Q 5.515625 40.765625 12.171875 48.375 
Q 18.84375 56 30.609375 56 
z
" id="DejaVuSans-111"/>
     <path d="M 37.109375 75.984375 
L 37.109375 68.5 
L 28.515625 68.5 
Q 23.6875 68.5 21.796875 66.546875 
Q 19.921875 64.59375 19.921875 59.515625 
L 19.921875 54.6875 
L 34.71875 54.6875 
L 34.71875 47.703125 
L 19.921875 47.703125 
L 19.921875 0 
L 10.890625 0 
L 10.890625 47.703125 
L 2.296875 47.703125 
L 2.296875 54.6875 
L 10.890625 54.6875 
L 10.890625 58.5 
Q 10.890625 67.625 15.140625 71.796875 
Q 19.390625 75.984375 28.609375 75.984375 
z
" id="DejaVuSans-102"/>
     <path d="M 9.421875 54.6875 
L 18.40625 54.6875 
L 18.40625 0 
L 9.421875 0 
z
M 9.421875 75.984375 
L 18.40625 75.984375 
L 18.40625 64.59375 
L 9.421875 64.59375 
z
" id="DejaVuSans-105"/>
     <path d="M 18.3125 70.21875 
L 18.3125 54.6875 
L 36.8125 54.6875 
L 36.8125 47.703125 
L 18.3125 47.703125 
L 18.3125 18.015625 
Q 18.3125 11.328125 20.140625 9.421875 
Q 21.96875 7.515625 27.59375 7.515625 
L 36.8125 7.515625 
L 36.8125 0 
L 27.59375 0 
Q 17.1875 0 13.234375 3.875 
Q 9.28125 7.765625 9.28125 18.015625 
L 9.28125 47.703125 
L 2.6875 47.703125 
L 2.6875 54.6875 
L 9.28125 54.6875 
L 9.28125 70.21875 
z
" id="DejaVuSans-116"/>
     <path d="M 44.28125 53.078125 
L 44.28125 44.578125 
Q 40.484375 46.53125 36.375 47.5 
Q 32.28125 48.484375 27.875 48.484375 
Q 21.1875 48.484375 17.84375 46.4375 
Q 14.5 44.390625 14.5 40.28125 
Q 14.5 37.15625 16.890625 35.375 
Q 19.28125 33.59375 26.515625 31.984375 
L 29.59375 31.296875 
Q 39.15625 29.25 43.1875 25.515625 
Q 47.21875 21.78125 47.21875 15.09375 
Q 47.21875 7.46875 41.1875 3.015625 
Q 35.15625 -1.421875 24.609375 -1.421875 
Q 20.21875 -1.421875 15.453125 -0.5625 
Q 10.6875 0.296875 5.421875 2 
L 5.421875 11.28125 
Q 10.40625 8.6875 15.234375 7.390625 
Q 20.0625 6.109375 24.8125 6.109375 
Q 31.15625 6.109375 34.5625 8.28125 
Q 37.984375 10.453125 37.984375 14.40625 
Q 37.984375 18.0625 35.515625 20.015625 
Q 33.0625 21.96875 24.703125 23.78125 
L 21.578125 24.515625 
Q 13.234375 26.265625 9.515625 29.90625 
Q 5.8125 33.546875 5.8125 39.890625 
Q 5.8125 47.609375 11.28125 51.796875 
Q 16.75 56 26.8125 56 
Q 31.78125 56 36.171875 55.265625 
Q 40.578125 54.546875 44.28125 53.078125 
z
" id="DejaVuSans-115"/>
     <path d="M 11.71875 12.40625 
L 22.015625 12.40625 
L 22.015625 0 
L 11.71875 0 
z
M 11.71875 51.703125 
L 22.015625 51.703125 
L 22.015625 39.3125 
L 11.71875 39.3125 
z
" id="DejaVuSans-58"/>
    </defs>
    <g transform="translate(622.12535 66)scale(0.1728 -0.1728)">
     <use xlink:href="#DejaVuSans-110"/>
     <use x="63.378906" xlink:href="#DejaVuSans-117"/>
     <use x="126.757812" xlink:href="#DejaVuSans-109"/>
     <use x="224.169922" xlink:href="#DejaVuSans-98"/>
     <use x="287.646484" xlink:href="#DejaVuSans-101"/>
     <use x="349.169922" xlink:href="#DejaVuSans-114"/>
     <use x="390.283203" xlink:href="#DejaVuSans-32"/>
     <use x="422.070312" xlink:href="#DejaVuSans-111"/>
     <use x="483.251953" xlink:href="#DejaVuSans-102"/>
     <use x="518.457031" xlink:href="#DejaVuSans-32"/>
     <use x="550.244141" xlink:href="#DejaVuSans-102"/>
     <use x="585.449219" xlink:href="#DejaVuSans-111"/>
     <use x="646.630859" xlink:href="#DejaVuSans-117"/>
     <use x="710.009766" xlink:href="#DejaVuSans-114"/>
     <use x="751.123047" xlink:href="#DejaVuSans-105"/>
     <use x="778.90625" xlink:href="#DejaVuSans-101"/>
     <use x="840.429688" xlink:href="#DejaVuSans-114"/>
     <use x="881.542969" xlink:href="#DejaVuSans-32"/>
     <use x="913.330078" xlink:href="#DejaVuSans-116"/>
     <use x="952.539062" xlink:href="#DejaVuSans-101"/>
     <use x="1014.0625" xlink:href="#DejaVuSans-114"/>
     <use x="1055.160156" xlink:href="#DejaVuSans-109"/>
     <use x="1152.572266" xlink:href="#DejaVuSans-115"/>
     <use x="1204.671875" xlink:href="#DejaVuSans-58"/>
     <use x="1238.363281" xlink:href="#DejaVuSans-32"/>
     <use x="1270.150391" xlink:href="#DejaVuSans-49"/>
    </g>
   </g>
   <g id="legend_1">
    <g id="patch_7">
     <path d="M 57.616 136.5516 
L 409.5961 136.5516 
Q 413.0521 136.5516 413.0521 133.0956 
L 413.0521 84.096 
Q 413.0521 80.64 409.5961 80.64 
L 57.616 80.64 
Q 54.16 80.64 54.16 84.096 
L 54.16 133.0956 
Q 54.16 136.5516 57.616 136.5516 
z
" style="fill:#ffffff;opacity:0.8;stroke:#cccccc;stroke-linejoin:miter;"/>
    </g>
    <g id="line2d_12">
     <path d="M 61.072 94.6341 
L 95.632 94.6341 
" style="fill:none;stroke:#1f77b4;stroke-linecap:square;stroke-width:1.5;"/>
    </g>
    <g id="line2d_13"/>
    <g id="text_11">
     <!-- periodic function -->
     <defs>
      <path d="M 18.109375 8.203125 
L 18.109375 -20.796875 
L 9.078125 -20.796875 
L 9.078125 54.6875 
L 18.109375 54.6875 
L 18.109375 46.390625 
Q 20.953125 51.265625 25.265625 53.625 
Q 29.59375 56 35.59375 56 
Q 45.5625 56 51.78125 48.09375 
Q 58.015625 40.1875 58.015625 27.296875 
Q 58.015625 14.40625 51.78125 6.484375 
Q 45.5625 -1.421875 35.59375 -1.421875 
Q 29.59375 -1.421875 25.265625 0.953125 
Q 20.953125 3.328125 18.109375 8.203125 
z
M 48.6875 27.296875 
Q 48.6875 37.203125 44.609375 42.84375 
Q 40.53125 48.484375 33.40625 48.484375 
Q 26.265625 48.484375 22.1875 42.84375 
Q 18.109375 37.203125 18.109375 27.296875 
Q 18.109375 17.390625 22.1875 11.75 
Q 26.265625 6.109375 33.40625 6.109375 
Q 40.53125 6.109375 44.609375 11.75 
Q 48.6875 17.390625 48.6875 27.296875 
z
" id="DejaVuSans-112"/>
      <path d="M 45.40625 46.390625 
L 45.40625 75.984375 
L 54.390625 75.984375 
L 54.390625 0 
L 45.40625 0 
L 45.40625 8.203125 
Q 42.578125 3.328125 38.25 0.953125 
Q 33.9375 -1.421875 27.875 -1.421875 
Q 17.96875 -1.421875 11.734375 6.484375 
Q 5.515625 14.40625 5.515625 27.296875 
Q 5.515625 40.1875 11.734375 48.09375 
Q 17.96875 56 27.875 56 
Q 33.9375 56 38.25 53.625 
Q 42.578125 51.265625 45.40625 46.390625 
z
M 14.796875 27.296875 
Q 14.796875 17.390625 18.875 11.75 
Q 22.953125 6.109375 30.078125 6.109375 
Q 37.203125 6.109375 41.296875 11.75 
Q 45.40625 17.390625 45.40625 27.296875 
Q 45.40625 37.203125 41.296875 42.84375 
Q 37.203125 48.484375 30.078125 48.484375 
Q 22.953125 48.484375 18.875 42.84375 
Q 14.796875 37.203125 14.796875 27.296875 
z
" id="DejaVuSans-100"/>
      <path d="M 48.78125 52.59375 
L 48.78125 44.1875 
Q 44.96875 46.296875 41.140625 47.34375 
Q 37.3125 48.390625 33.40625 48.390625 
Q 24.65625 48.390625 19.8125 42.84375 
Q 14.984375 37.3125 14.984375 27.296875 
Q 14.984375 17.28125 19.8125 11.734375 
Q 24.65625 6.203125 33.40625 6.203125 
Q 37.3125 6.203125 41.140625 7.25 
Q 44.96875 8.296875 48.78125 10.40625 
L 48.78125 2.09375 
Q 45.015625 0.34375 40.984375 -0.53125 
Q 36.96875 -1.421875 32.421875 -1.421875 
Q 20.0625 -1.421875 12.78125 6.34375 
Q 5.515625 14.109375 5.515625 27.296875 
Q 5.515625 40.671875 12.859375 48.328125 
Q 20.21875 56 33.015625 56 
Q 37.15625 56 41.109375 55.140625 
Q 45.0625 54.296875 48.78125 52.59375 
z
" id="DejaVuSans-99"/>
     </defs>
     <g transform="translate(109.456 100.6821)scale(0.1728 -0.1728)">
      <use xlink:href="#DejaVuSans-112"/>
      <use x="63.476562" xlink:href="#DejaVuSans-101"/>
      <use x="125" xlink:href="#DejaVuSans-114"/>
      <use x="166.113281" xlink:href="#DejaVuSans-105"/>
      <use x="193.896484" xlink:href="#DejaVuSans-111"/>
      <use x="255.078125" xlink:href="#DejaVuSans-100"/>
      <use x="318.554688" xlink:href="#DejaVuSans-105"/>
      <use x="346.337891" xlink:href="#DejaVuSans-99"/>
      <use x="401.318359" xlink:href="#DejaVuSans-32"/>
      <use x="433.105469" xlink:href="#DejaVuSans-102"/>
      <use x="468.310547" xlink:href="#DejaVuSans-117"/>
      <use x="531.689453" xlink:href="#DejaVuSans-110"/>
      <use x="595.068359" xlink:href="#DejaVuSans-99"/>
      <use x="650.048828" xlink:href="#DejaVuSans-116"/>
      <use x="689.257812" xlink:href="#DejaVuSans-105"/>
      <use x="717.041016" xlink:href="#DejaVuSans-111"/>
      <use x="778.222656" xlink:href="#DejaVuSans-110"/>
     </g>
    </g>
    <g id="line2d_14">
     <path d="M 61.072 119.9979 
L 95.632 119.9979 
" style="fill:none;stroke:#ff7f0e;stroke-linecap:square;stroke-width:1.5;"/>
    </g>
    <g id="line2d_15"/>
    <g id="text_12">
     <!-- approximation via cosine and sine -->
     <defs>
      <path d="M 34.28125 27.484375 
Q 23.390625 27.484375 19.1875 25 
Q 14.984375 22.515625 14.984375 16.5 
Q 14.984375 11.71875 18.140625 8.90625 
Q 21.296875 6.109375 26.703125 6.109375 
Q 34.1875 6.109375 38.703125 11.40625 
Q 43.21875 16.703125 43.21875 25.484375 
L 43.21875 27.484375 
z
M 52.203125 31.203125 
L 52.203125 0 
L 43.21875 0 
L 43.21875 8.296875 
Q 40.140625 3.328125 35.546875 0.953125 
Q 30.953125 -1.421875 24.3125 -1.421875 
Q 15.921875 -1.421875 10.953125 3.296875 
Q 6 8.015625 6 15.921875 
Q 6 25.140625 12.171875 29.828125 
Q 18.359375 34.515625 30.609375 34.515625 
L 43.21875 34.515625 
L 43.21875 35.40625 
Q 43.21875 41.609375 39.140625 45 
Q 35.0625 48.390625 27.6875 48.390625 
Q 23 48.390625 18.546875 47.265625 
Q 14.109375 46.140625 10.015625 43.890625 
L 10.015625 52.203125 
Q 14.9375 54.109375 19.578125 55.046875 
Q 24.21875 56 28.609375 56 
Q 40.484375 56 46.34375 49.84375 
Q 52.203125 43.703125 52.203125 31.203125 
z
" id="DejaVuSans-97"/>
      <path d="M 54.890625 54.6875 
L 35.109375 28.078125 
L 55.90625 0 
L 45.3125 0 
L 29.390625 21.484375 
L 13.484375 0 
L 2.875 0 
L 24.125 28.609375 
L 4.6875 54.6875 
L 15.28125 54.6875 
L 29.78125 35.203125 
L 44.28125 54.6875 
z
" id="DejaVuSans-120"/>
      <path d="M 2.984375 54.6875 
L 12.5 54.6875 
L 29.59375 8.796875 
L 46.6875 54.6875 
L 56.203125 54.6875 
L 35.6875 0 
L 23.484375 0 
z
" id="DejaVuSans-118"/>
     </defs>
     <g transform="translate(109.456 126.0459)scale(0.1728 -0.1728)">
      <use xlink:href="#DejaVuSans-97"/>
      <use x="61.279297" xlink:href="#DejaVuSans-112"/>
      <use x="124.755859" xlink:href="#DejaVuSans-112"/>
      <use x="188.232422" xlink:href="#DejaVuSans-114"/>
      <use x="229.314453" xlink:href="#DejaVuSans-111"/>
      <use x="290.449219" xlink:href="#DejaVuSans-120"/>
      <use x="349.628906" xlink:href="#DejaVuSans-105"/>
      <use x="377.412109" xlink:href="#DejaVuSans-109"/>
      <use x="474.824219" xlink:href="#DejaVuSans-97"/>
      <use x="536.103516" xlink:href="#DejaVuSans-116"/>
      <use x="575.3125" xlink:href="#DejaVuSans-105"/>
      <use x="603.095703" xlink:href="#DejaVuSans-111"/>
      <use x="664.277344" xlink:href="#DejaVuSans-110"/>
      <use x="727.65625" xlink:href="#DejaVuSans-32"/>
      <use x="759.443359" xlink:href="#DejaVuSans-118"/>
      <use x="818.623047" xlink:href="#DejaVuSans-105"/>
      <use x="846.40625" xlink:href="#DejaVuSans-97"/>
      <use x="907.685547" xlink:href="#DejaVuSans-32"/>
      <use x="939.472656" xlink:href="#DejaVuSans-99"/>
      <use x="994.453125" xlink:href="#DejaVuSans-111"/>
      <use x="1055.634766" xlink:href="#DejaVuSans-115"/>
      <use x="1107.734375" xlink:href="#DejaVuSans-105"/>
      <use x="1135.517578" xlink:href="#DejaVuSans-110"/>
      <use x="1198.896484" xlink:href="#DejaVuSans-101"/>
      <use x="1260.419922" xlink:href="#DejaVuSans-32"/>
      <use x="1292.207031" xlink:href="#DejaVuSans-97"/>
      <use x="1353.486328" xlink:href="#DejaVuSans-110"/>
      <use x="1416.865234" xlink:href="#DejaVuSans-100"/>
      <use x="1480.341797" xlink:href="#DejaVuSans-32"/>
      <use x="1512.128906" xlink:href="#DejaVuSans-115"/>
      <use x="1564.228516" xlink:href="#DejaVuSans-105"/>
      <use x="1592.011719" xlink:href="#DejaVuSans-110"/>
      <use x="1655.390625" xlink:href="#DejaVuSans-101"/>
     </g>
    </g>
   </g>
  </g>
  <g id="axes_2">
   <g id="patch_8">
    <path d="M 45.52 463.518056 
L 1429.2 463.518056 
L 1429.2 293.401944 
L 45.52 293.401944 
z
" style="fill:#ffffff;"/>
   </g>
   <g id="matplotlib.axis_3">
    <g id="xtick_7">
     <g id="line2d_16">
      <g>
       <use style="stroke:#000000;stroke-width:0.8;" x="108.414545" xlink:href="#md7ac6de9de" y="463.518056"/>
      </g>
     </g>
     <g id="text_13">
      <!-- 0 -->
      <g transform="translate(102.917345 483.648156)scale(0.1728 -0.1728)">
       <use xlink:href="#DejaVuSans-48"/>
      </g>
     </g>
    </g>
    <g id="xtick_8">
     <g id="line2d_17">
      <g>
       <use style="stroke:#000000;stroke-width:0.8;" x="360.834126" xlink:href="#md7ac6de9de" y="463.518056"/>
      </g>
     </g>
     <g id="text_14">
      <!-- 2 -->
      <g transform="translate(355.336926 483.648156)scale(0.1728 -0.1728)">
       <use xlink:href="#DejaVuSans-50"/>
      </g>
     </g>
    </g>
    <g id="xtick_9">
     <g id="line2d_18">
      <g>
       <use style="stroke:#000000;stroke-width:0.8;" x="613.253706" xlink:href="#md7ac6de9de" y="463.518056"/>
      </g>
     </g>
     <g id="text_15">
      <!-- 4 -->
      <g transform="translate(607.756506 483.648156)scale(0.1728 -0.1728)">
       <use xlink:href="#DejaVuSans-52"/>
      </g>
     </g>
    </g>
    <g id="xtick_10">
     <g id="line2d_19">
      <g>
       <use style="stroke:#000000;stroke-width:0.8;" x="865.673287" xlink:href="#md7ac6de9de" y="463.518056"/>
      </g>
     </g>
     <g id="text_16">
      <!-- 6 -->
      <g transform="translate(860.176087 483.648156)scale(0.1728 -0.1728)">
       <use xlink:href="#DejaVuSans-54"/>
      </g>
     </g>
    </g>
    <g id="xtick_11">
     <g id="line2d_20">
      <g>
       <use style="stroke:#000000;stroke-width:0.8;" x="1118.092867" xlink:href="#md7ac6de9de" y="463.518056"/>
      </g>
     </g>
     <g id="text_17">
      <!-- 8 -->
      <g transform="translate(1112.595667 483.648156)scale(0.1728 -0.1728)">
       <use xlink:href="#DejaVuSans-56"/>
      </g>
     </g>
    </g>
    <g id="xtick_12">
     <g id="line2d_21">
      <g>
       <use style="stroke:#000000;stroke-width:0.8;" x="1370.512448" xlink:href="#md7ac6de9de" y="463.518056"/>
      </g>
     </g>
     <g id="text_18">
      <!-- 10 -->
      <g transform="translate(1359.518048 483.648156)scale(0.1728 -0.1728)">
       <use xlink:href="#DejaVuSans-49"/>
       <use x="63.623047" xlink:href="#DejaVuSans-48"/>
      </g>
     </g>
    </g>
   </g>
   <g id="matplotlib.axis_4">
    <g id="ytick_4">
     <g id="line2d_22">
      <g>
       <use style="stroke:#000000;stroke-width:0.8;" x="45.52" xlink:href="#m6d7a247d2e" y="455.785506"/>
      </g>
     </g>
     <g id="text_19">
      <!-- 0.0 -->
      <g transform="translate(11.0394 462.350556)scale(0.1728 -0.1728)">
       <use xlink:href="#DejaVuSans-48"/>
       <use x="63.623047" xlink:href="#DejaVuSans-46"/>
       <use x="95.410156" xlink:href="#DejaVuSans-48"/>
      </g>
     </g>
    </g>
    <g id="ytick_5">
     <g id="line2d_23">
      <g>
       <use style="stroke:#000000;stroke-width:0.8;" x="45.52" xlink:href="#m6d7a247d2e" y="378.46"/>
      </g>
     </g>
     <g id="text_20">
      <!-- 0.5 -->
      <g transform="translate(11.0394 385.02505)scale(0.1728 -0.1728)">
       <use xlink:href="#DejaVuSans-48"/>
       <use x="63.623047" xlink:href="#DejaVuSans-46"/>
       <use x="95.410156" xlink:href="#DejaVuSans-53"/>
      </g>
     </g>
    </g>
    <g id="ytick_6">
     <g id="line2d_24">
      <g>
       <use style="stroke:#000000;stroke-width:0.8;" x="45.52" xlink:href="#m6d7a247d2e" y="301.134494"/>
      </g>
     </g>
     <g id="text_21">
      <!-- 1.0 -->
      <g transform="translate(11.0394 307.699544)scale(0.1728 -0.1728)">
       <use xlink:href="#DejaVuSans-49"/>
       <use x="63.623047" xlink:href="#DejaVuSans-46"/>
       <use x="95.410156" xlink:href="#DejaVuSans-48"/>
      </g>
     </g>
    </g>
   </g>
   <g id="line2d_25">
    <path clip-path="url(#pdcbbb8ae56)" d="M 108.414545 455.785506 
L 356.627133 455.785506 
L 360.834126 301.134494 
L 609.046713 301.134494 
L 613.253706 455.785506 
L 861.466294 455.785506 
L 865.673287 301.134494 
L 1113.885874 301.134494 
L 1118.092867 455.785506 
L 1366.305455 455.785506 
L 1366.305455 455.785506 
" style="fill:none;stroke:#1f77b4;stroke-linecap:square;stroke-width:1.5;"/>
   </g>
   <g id="line2d_26">
    <path clip-path="url(#pdcbbb8ae56)" d="M 108.414545 382.584027 
L 116.828531 398.799273 
L 121.035524 406.547062 
L 125.242517 413.917377 
L 129.44951 420.817008 
L 133.656503 427.163233 
L 137.863497 432.885613 
L 142.07049 437.927494 
L 146.277483 442.247169 
L 150.484476 445.818681 
L 154.691469 448.632241 
L 158.898462 450.694254 
L 163.105455 452.026956 
L 167.312448 452.667663 
L 171.519441 452.667663 
L 175.726434 452.090768 
L 179.933427 451.011567 
L 184.14042 449.513427 
L 188.347413 447.686279 
L 192.554406 445.624266 
L 209.382378 436.919863 
L 213.589371 435.071112 
L 217.796364 433.504503 
L 222.003357 432.277374 
L 226.21035 431.434058 
L 230.417343 431.004753 
L 234.624336 431.004753 
L 238.831329 431.434058 
L 243.038322 432.277374 
L 247.245315 433.504503 
L 251.452308 435.071112 
L 255.659301 436.919863 
L 259.866294 438.981876 
L 276.694266 447.686279 
L 280.901259 449.513427 
L 285.108252 451.011567 
L 289.315245 452.090768 
L 293.522238 452.667663 
L 297.729231 452.667663 
L 301.936224 452.026956 
L 306.143217 450.694254 
L 310.35021 448.632241 
L 314.557203 445.818681 
L 318.764196 442.247169 
L 322.971189 437.927494 
L 327.178182 432.885613 
L 331.385175 427.163233 
L 335.592168 420.817008 
L 339.799161 413.917377 
L 344.006154 406.547062 
L 348.213147 398.799273 
L 356.627133 382.584027 
L 365.041119 366.144345 
L 369.248112 358.120727 
L 373.455105 350.372938 
L 377.662098 343.002623 
L 381.869091 336.102992 
L 386.076084 329.756767 
L 390.283077 324.034387 
L 394.49007 318.992506 
L 398.697063 314.672831 
L 402.904056 311.101319 
L 407.111049 308.287759 
L 411.318042 306.225746 
L 415.525035 304.893044 
L 419.732028 304.252337 
L 423.939021 304.252337 
L 428.146014 304.829232 
L 432.353007 305.908433 
L 436.56 307.406573 
L 440.766993 309.233721 
L 444.973986 311.295734 
L 461.801958 320.000137 
L 466.008951 321.848888 
L 470.215944 323.415497 
L 474.422937 324.642626 
L 478.62993 325.485942 
L 482.836923 325.915247 
L 487.043916 325.915247 
L 491.250909 325.485942 
L 495.457902 324.642626 
L 499.664895 323.415497 
L 503.871888 321.848888 
L 508.078881 320.000137 
L 512.285874 317.938124 
L 529.113846 309.233721 
L 533.320839 307.406573 
L 537.527832 305.908433 
L 541.734825 304.829232 
L 545.941818 304.252337 
L 550.148811 304.252337 
L 554.355804 304.893044 
L 558.562797 306.225746 
L 562.76979 308.287759 
L 566.976783 311.101319 
L 571.183776 314.672831 
L 575.390769 318.992506 
L 579.597762 324.034387 
L 583.804755 329.756767 
L 588.011748 336.102992 
L 592.218741 343.002623 
L 596.425734 350.372938 
L 600.632727 358.120727 
L 609.046713 374.335973 
L 617.460699 390.775655 
L 621.667692 398.799273 
L 625.874685 406.547062 
L 630.081678 413.917377 
L 634.288671 420.817008 
L 638.495664 427.163233 
L 642.702657 432.885613 
L 646.90965 437.927494 
L 651.116643 442.247169 
L 655.323636 445.818681 
L 659.530629 448.632241 
L 663.737622 450.694254 
L 667.944615 452.026956 
L 672.151608 452.667663 
L 676.358601 452.667663 
L 680.565594 452.090768 
L 684.772587 451.011567 
L 688.97958 449.513427 
L 693.186573 447.686279 
L 697.393566 445.624266 
L 714.221538 436.919863 
L 718.428531 435.071112 
L 722.635524 433.504503 
L 726.842517 432.277374 
L 731.04951 431.434058 
L 735.256503 431.004753 
L 739.463497 431.004753 
L 743.67049 431.434058 
L 747.877483 432.277374 
L 752.084476 433.504503 
L 756.291469 435.071112 
L 760.498462 436.919863 
L 764.705455 438.981876 
L 781.533427 447.686279 
L 785.74042 449.513427 
L 789.947413 451.011567 
L 794.154406 452.090768 
L 798.361399 452.667663 
L 802.568392 452.667663 
L 806.775385 452.026956 
L 810.982378 450.694254 
L 815.189371 448.632241 
L 819.396364 445.818681 
L 823.603357 442.247169 
L 827.81035 437.927494 
L 832.017343 432.885613 
L 836.224336 427.163233 
L 840.431329 420.817008 
L 844.638322 413.917377 
L 848.845315 406.547062 
L 853.052308 398.799273 
L 861.466294 382.584027 
L 869.88028 366.144345 
L 874.087273 358.120727 
L 878.294266 350.372938 
L 882.501259 343.002623 
L 886.708252 336.102992 
L 890.915245 329.756767 
L 895.122238 324.034387 
L 899.329231 318.992506 
L 903.536224 314.672831 
L 907.743217 311.101319 
L 911.95021 308.287759 
L 916.157203 306.225746 
L 920.364196 304.893044 
L 924.571189 304.252337 
L 928.778182 304.252337 
L 932.985175 304.829232 
L 937.192168 305.908433 
L 941.399161 307.406573 
L 945.606154 309.233721 
L 949.813147 311.295734 
L 966.641119 320.000137 
L 970.848112 321.848888 
L 975.055105 323.415497 
L 979.262098 324.642626 
L 983.469091 325.485942 
L 987.676084 325.915247 
L 991.883077 325.915247 
L 996.09007 325.485942 
L 1000.297063 324.642626 
L 1004.504056 323.415497 
L 1008.711049 321.848888 
L 1012.918042 320.000137 
L 1017.125035 317.938124 
L 1033.953007 309.233721 
L 1038.16 307.406573 
L 1042.366993 305.908433 
L 1046.573986 304.829232 
L 1050.780979 304.252337 
L 1054.987972 304.252337 
L 1059.194965 304.893044 
L 1063.401958 306.225746 
L 1067.608951 308.287759 
L 1071.815944 311.101319 
L 1076.022937 314.672831 
L 1080.22993 318.992506 
L 1084.436923 324.034387 
L 1088.643916 329.756767 
L 1092.850909 336.102992 
L 1097.057902 343.002623 
L 1101.264895 350.372938 
L 1105.471888 358.120727 
L 1113.885874 374.335973 
L 1122.29986 390.775655 
L 1126.506853 398.799273 
L 1130.713846 406.547062 
L 1134.920839 413.917377 
L 1139.127832 420.817008 
L 1143.334825 427.163233 
L 1147.541818 432.885613 
L 1151.748811 437.927494 
L 1155.955804 442.247169 
L 1160.162797 445.818681 
L 1164.36979 448.632241 
L 1168.576783 450.694254 
L 1172.783776 452.026956 
L 1176.990769 452.667663 
L 1181.197762 452.667663 
L 1185.404755 452.090768 
L 1189.611748 451.011567 
L 1193.818741 449.513427 
L 1198.025734 447.686279 
L 1202.232727 445.624266 
L 1219.060699 436.919863 
L 1223.267692 435.071112 
L 1227.474685 433.504503 
L 1231.681678 432.277374 
L 1235.888671 431.434058 
L 1240.095664 431.004753 
L 1244.302657 431.004753 
L 1248.50965 431.434058 
L 1252.716643 432.277374 
L 1256.923636 433.504503 
L 1261.130629 435.071112 
L 1265.337622 436.919863 
L 1269.544615 438.981876 
L 1286.372587 447.686279 
L 1290.57958 449.513427 
L 1294.786573 451.011567 
L 1298.993566 452.090768 
L 1303.200559 452.667663 
L 1307.407552 452.667663 
L 1311.614545 452.026956 
L 1315.821538 450.694254 
L 1320.028531 448.632241 
L 1324.235524 445.818681 
L 1328.442517 442.247169 
L 1332.64951 437.927494 
L 1336.856503 432.885613 
L 1341.063497 427.163233 
L 1345.27049 420.817008 
L 1349.477483 413.917377 
L 1353.684476 406.547062 
L 1357.891469 398.799273 
L 1366.305455 382.584027 
L 1366.305455 382.584027 
" style="fill:none;stroke:#ff7f0e;stroke-linecap:square;stroke-width:1.5;"/>
   </g>
   <g id="patch_9">
    <path d="M 45.52 463.518056 
L 45.52 293.401944 
" style="fill:none;stroke:#000000;stroke-linecap:square;stroke-linejoin:miter;stroke-width:0.8;"/>
   </g>
   <g id="patch_10">
    <path d="M 1429.2 463.518056 
L 1429.2 293.401944 
" style="fill:none;stroke:#000000;stroke-linecap:square;stroke-linejoin:miter;stroke-width:0.8;"/>
   </g>
   <g id="patch_11">
    <path d="M 45.52 463.518056 
L 1429.2 463.518056 
" style="fill:none;stroke:#000000;stroke-linecap:square;stroke-linejoin:miter;stroke-width:0.8;"/>
   </g>
   <g id="patch_12">
    <path d="M 45.52 293.401944 
L 1429.2 293.401944 
" style="fill:none;stroke:#000000;stroke-linecap:square;stroke-linejoin:miter;stroke-width:0.8;"/>
   </g>
   <g id="text_22">
    <!-- number of fourier terms: 3 -->
    <defs>
     <path d="M 40.578125 39.3125 
Q 47.65625 37.796875 51.625 33 
Q 55.609375 28.21875 55.609375 21.1875 
Q 55.609375 10.40625 48.1875 4.484375 
Q 40.765625 -1.421875 27.09375 -1.421875 
Q 22.515625 -1.421875 17.65625 -0.515625 
Q 12.796875 0.390625 7.625 2.203125 
L 7.625 11.71875 
Q 11.71875 9.328125 16.59375 8.109375 
Q 21.484375 6.890625 26.8125 6.890625 
Q 36.078125 6.890625 40.9375 10.546875 
Q 45.796875 14.203125 45.796875 21.1875 
Q 45.796875 27.640625 41.28125 31.265625 
Q 36.765625 34.90625 28.71875 34.90625 
L 20.21875 34.90625 
L 20.21875 43.015625 
L 29.109375 43.015625 
Q 36.375 43.015625 40.234375 45.921875 
Q 44.09375 48.828125 44.09375 54.296875 
Q 44.09375 59.90625 40.109375 62.90625 
Q 36.140625 65.921875 28.71875 65.921875 
Q 24.65625 65.921875 20.015625 65.03125 
Q 15.375 64.15625 9.8125 62.3125 
L 9.8125 71.09375 
Q 15.4375 72.65625 20.34375 73.4375 
Q 25.25 74.21875 29.59375 74.21875 
Q 40.828125 74.21875 47.359375 69.109375 
Q 53.90625 64.015625 53.90625 55.328125 
Q 53.90625 49.265625 50.4375 45.09375 
Q 46.96875 40.921875 40.578125 39.3125 
z
" id="DejaVuSans-51"/>
    </defs>
    <g transform="translate(622.12535 287.401944)scale(0.1728 -0.1728)">
     <use xlink:href="#DejaVuSans-110"/>
     <use x="63.378906" xlink:href="#DejaVuSans-117"/>
     <use x="126.757812" xlink:href="#DejaVuSans-109"/>
     <use x="224.169922" xlink:href="#DejaVuSans-98"/>
     <use x="287.646484" xlink:href="#DejaVuSans-101"/>
     <use x="349.169922" xlink:href="#DejaVuSans-114"/>
     <use x="390.283203" xlink:href="#DejaVuSans-32"/>
     <use x="422.070312" xlink:href="#DejaVuSans-111"/>
     <use x="483.251953" xlink:href="#DejaVuSans-102"/>
     <use x="518.457031" xlink:href="#DejaVuSans-32"/>
     <use x="550.244141" xlink:href="#DejaVuSans-102"/>
     <use x="585.449219" xlink:href="#DejaVuSans-111"/>
     <use x="646.630859" xlink:href="#DejaVuSans-117"/>
     <use x="710.009766" xlink:href="#DejaVuSans-114"/>
     <use x="751.123047" xlink:href="#DejaVuSans-105"/>
     <use x="778.90625" xlink:href="#DejaVuSans-101"/>
     <use x="840.429688" xlink:href="#DejaVuSans-114"/>
     <use x="881.542969" xlink:href="#DejaVuSans-32"/>
     <use x="913.330078" xlink:href="#DejaVuSans-116"/>
     <use x="952.539062" xlink:href="#DejaVuSans-101"/>
     <use x="1014.0625" xlink:href="#DejaVuSans-114"/>
     <use x="1055.160156" xlink:href="#DejaVuSans-109"/>
     <use x="1152.572266" xlink:href="#DejaVuSans-115"/>
     <use x="1204.671875" xlink:href="#DejaVuSans-58"/>
     <use x="1238.363281" xlink:href="#DejaVuSans-32"/>
     <use x="1270.150391" xlink:href="#DejaVuSans-51"/>
    </g>
   </g>
  </g>
  <g id="axes_3">
   <g id="patch_13">
    <path d="M 45.52 684.92 
L 1429.2 684.92 
L 1429.2 514.803887 
L 45.52 514.803887 
z
" style="fill:#ffffff;"/>
   </g>
   <g id="matplotlib.axis_5">
    <g id="xtick_13">
     <g id="line2d_27">
      <g>
       <use style="stroke:#000000;stroke-width:0.8;" x="108.414545" xlink:href="#md7ac6de9de" y="684.92"/>
      </g>
     </g>
     <g id="text_23">
      <!-- 0 -->
      <g transform="translate(102.917345 705.0501)scale(0.1728 -0.1728)">
       <use xlink:href="#DejaVuSans-48"/>
      </g>
     </g>
    </g>
    <g id="xtick_14">
     <g id="line2d_28">
      <g>
       <use style="stroke:#000000;stroke-width:0.8;" x="360.834126" xlink:href="#md7ac6de9de" y="684.92"/>
      </g>
     </g>
     <g id="text_24">
      <!-- 2 -->
      <g transform="translate(355.336926 705.0501)scale(0.1728 -0.1728)">
       <use xlink:href="#DejaVuSans-50"/>
      </g>
     </g>
    </g>
    <g id="xtick_15">
     <g id="line2d_29">
      <g>
       <use style="stroke:#000000;stroke-width:0.8;" x="613.253706" xlink:href="#md7ac6de9de" y="684.92"/>
      </g>
     </g>
     <g id="text_25">
      <!-- 4 -->
      <g transform="translate(607.756506 705.0501)scale(0.1728 -0.1728)">
       <use xlink:href="#DejaVuSans-52"/>
      </g>
     </g>
    </g>
    <g id="xtick_16">
     <g id="line2d_30">
      <g>
       <use style="stroke:#000000;stroke-width:0.8;" x="865.673287" xlink:href="#md7ac6de9de" y="684.92"/>
      </g>
     </g>
     <g id="text_26">
      <!-- 6 -->
      <g transform="translate(860.176087 705.0501)scale(0.1728 -0.1728)">
       <use xlink:href="#DejaVuSans-54"/>
      </g>
     </g>
    </g>
    <g id="xtick_17">
     <g id="line2d_31">
      <g>
       <use style="stroke:#000000;stroke-width:0.8;" x="1118.092867" xlink:href="#md7ac6de9de" y="684.92"/>
      </g>
     </g>
     <g id="text_27">
      <!-- 8 -->
      <g transform="translate(1112.595667 705.0501)scale(0.1728 -0.1728)">
       <use xlink:href="#DejaVuSans-56"/>
      </g>
     </g>
    </g>
    <g id="xtick_18">
     <g id="line2d_32">
      <g>
       <use style="stroke:#000000;stroke-width:0.8;" x="1370.512448" xlink:href="#md7ac6de9de" y="684.92"/>
      </g>
     </g>
     <g id="text_28">
      <!-- 10 -->
      <g transform="translate(1359.518048 705.0501)scale(0.1728 -0.1728)">
       <use xlink:href="#DejaVuSans-49"/>
       <use x="63.623047" xlink:href="#DejaVuSans-48"/>
      </g>
     </g>
    </g>
   </g>
   <g id="matplotlib.axis_6">
    <g id="ytick_7">
     <g id="line2d_33">
      <g>
       <use style="stroke:#000000;stroke-width:0.8;" x="45.52" xlink:href="#m6d7a247d2e" y="677.187449"/>
      </g>
     </g>
     <g id="text_29">
      <!-- 0.0 -->
      <g transform="translate(11.0394 683.752499)scale(0.1728 -0.1728)">
       <use xlink:href="#DejaVuSans-48"/>
       <use x="63.623047" xlink:href="#DejaVuSans-46"/>
       <use x="95.410156" xlink:href="#DejaVuSans-48"/>
      </g>
     </g>
    </g>
    <g id="ytick_8">
     <g id="line2d_34">
      <g>
       <use style="stroke:#000000;stroke-width:0.8;" x="45.52" xlink:href="#m6d7a247d2e" y="599.861944"/>
      </g>
     </g>
     <g id="text_30">
      <!-- 0.5 -->
      <g transform="translate(11.0394 606.426994)scale(0.1728 -0.1728)">
       <use xlink:href="#DejaVuSans-48"/>
       <use x="63.623047" xlink:href="#DejaVuSans-46"/>
       <use x="95.410156" xlink:href="#DejaVuSans-53"/>
      </g>
     </g>
    </g>
    <g id="ytick_9">
     <g id="line2d_35">
      <g>
       <use style="stroke:#000000;stroke-width:0.8;" x="45.52" xlink:href="#m6d7a247d2e" y="522.536438"/>
      </g>
     </g>
     <g id="text_31">
      <!-- 1.0 -->
      <g transform="translate(11.0394 529.101488)scale(0.1728 -0.1728)">
       <use xlink:href="#DejaVuSans-49"/>
       <use x="63.623047" xlink:href="#DejaVuSans-46"/>
       <use x="95.410156" xlink:href="#DejaVuSans-48"/>
      </g>
     </g>
    </g>
   </g>
   <g id="line2d_36">
    <path clip-path="url(#p89ea307c57)" d="M 108.414545 677.187449 
L 356.627133 677.187449 
L 360.834126 522.536438 
L 609.046713 522.536438 
L 613.253706 677.187449 
L 861.466294 677.187449 
L 865.673287 522.536438 
L 1113.885874 522.536438 
L 1118.092867 677.187449 
L 1366.305455 677.187449 
L 1366.305455 677.187449 
" style="fill:none;stroke:#1f77b4;stroke-linecap:square;stroke-width:1.5;"/>
   </g>
   <g id="line2d_37">
    <path clip-path="url(#p89ea307c57)" d="M 108.414545 610.172011 
L 112.621538 629.87179 
L 116.828531 646.955711 
L 121.035524 660.137036 
L 125.242517 668.726048 
L 129.44951 672.709552 
L 133.656503 672.709552 
L 137.863497 669.832602 
L 146.277483 660.900179 
L 150.484476 657.328667 
L 154.691469 655.435658 
L 158.898462 655.435658 
L 163.105455 657.073944 
L 167.312448 659.742714 
L 171.519441 662.658842 
L 175.726434 665.061813 
L 179.933427 666.388471 
L 184.14042 666.388471 
L 188.347413 665.159137 
L 192.554406 663.097123 
L 196.761399 660.782871 
L 200.968392 658.828118 
L 205.175385 657.72376 
L 209.382378 657.72376 
L 213.589371 658.791137 
L 217.796364 660.616788 
L 222.003357 662.704505 
L 226.21035 664.500097 
L 230.417343 665.532519 
L 234.624336 665.532519 
L 238.831329 664.500097 
L 243.038322 662.704505 
L 247.245315 660.616788 
L 251.452308 658.791137 
L 255.659301 657.72376 
L 259.866294 657.72376 
L 264.073287 658.828118 
L 268.28028 660.782871 
L 272.487273 663.097123 
L 276.694266 665.159137 
L 280.901259 666.388471 
L 285.108252 666.388471 
L 289.315245 665.061813 
L 293.522238 662.658842 
L 297.729231 659.742714 
L 301.936224 657.073944 
L 306.143217 655.435658 
L 310.35021 655.435658 
L 314.557203 657.328667 
L 318.764196 660.900179 
L 327.178182 669.832602 
L 331.385175 672.709552 
L 335.592168 672.709552 
L 339.799161 668.726048 
L 344.006154 660.137036 
L 348.213147 646.955711 
L 352.42014 629.87179 
L 356.627133 610.172011 
L 360.834126 589.551876 
L 365.041119 569.852098 
L 369.248112 552.768176 
L 373.455105 539.586851 
L 377.662098 530.997839 
L 381.869091 527.014335 
L 386.076084 527.014335 
L 390.283077 529.891285 
L 398.697063 538.823708 
L 402.904056 542.39522 
L 407.111049 544.28823 
L 411.318042 544.28823 
L 415.525035 542.649944 
L 419.732028 539.981173 
L 423.939021 537.065046 
L 428.146014 534.662074 
L 432.353007 533.335416 
L 436.56 533.335416 
L 440.766993 534.564751 
L 444.973986 536.626764 
L 449.180979 538.941016 
L 453.387972 540.895769 
L 457.594965 542.000127 
L 461.801958 542.000127 
L 466.008951 540.93275 
L 470.215944 539.107099 
L 474.422937 537.019383 
L 478.62993 535.22379 
L 482.836923 534.191369 
L 487.043916 534.191369 
L 491.250909 535.22379 
L 495.457902 537.019383 
L 499.664895 539.107099 
L 503.871888 540.93275 
L 508.078881 542.000127 
L 512.285874 542.000127 
L 516.492867 540.895769 
L 520.69986 538.941016 
L 524.906853 536.626764 
L 529.113846 534.564751 
L 533.320839 533.335416 
L 537.527832 533.335416 
L 541.734825 534.662074 
L 545.941818 537.065046 
L 550.148811 539.981173 
L 554.355804 542.649944 
L 558.562797 544.28823 
L 562.76979 544.28823 
L 566.976783 542.39522 
L 571.183776 538.823708 
L 579.597762 529.891285 
L 583.804755 527.014335 
L 588.011748 527.014335 
L 592.218741 530.997839 
L 596.425734 539.586851 
L 600.632727 552.768176 
L 604.83972 569.852098 
L 609.046713 589.551876 
L 613.253706 610.172011 
L 617.460699 629.87179 
L 621.667692 646.955711 
L 625.874685 660.137036 
L 630.081678 668.726048 
L 634.288671 672.709552 
L 638.495664 672.709552 
L 642.702657 669.832602 
L 651.116643 660.900179 
L 655.323636 657.328667 
L 659.530629 655.435658 
L 663.737622 655.435658 
L 667.944615 657.073944 
L 672.151608 659.742714 
L 676.358601 662.658842 
L 680.565594 665.061813 
L 684.772587 666.388471 
L 688.97958 666.388471 
L 693.186573 665.159137 
L 697.393566 663.097123 
L 701.600559 660.782871 
L 705.807552 658.828118 
L 710.014545 657.72376 
L 714.221538 657.72376 
L 718.428531 658.791137 
L 722.635524 660.616788 
L 726.842517 662.704505 
L 731.04951 664.500097 
L 735.256503 665.532519 
L 739.463497 665.532519 
L 743.67049 664.500097 
L 747.877483 662.704505 
L 752.084476 660.616788 
L 756.291469 658.791137 
L 760.498462 657.72376 
L 764.705455 657.72376 
L 768.912448 658.828118 
L 773.119441 660.782871 
L 777.326434 663.097123 
L 781.533427 665.159137 
L 785.74042 666.388471 
L 789.947413 666.388471 
L 794.154406 665.061813 
L 798.361399 662.658842 
L 802.568392 659.742714 
L 806.775385 657.073944 
L 810.982378 655.435658 
L 815.189371 655.435658 
L 819.396364 657.328667 
L 823.603357 660.900179 
L 832.017343 669.832602 
L 836.224336 672.709552 
L 840.431329 672.709552 
L 844.638322 668.726048 
L 848.845315 660.137036 
L 853.052308 646.955711 
L 857.259301 629.87179 
L 861.466294 610.172011 
L 865.673287 589.551876 
L 869.88028 569.852098 
L 874.087273 552.768176 
L 878.294266 539.586851 
L 882.501259 530.997839 
L 886.708252 527.014335 
L 890.915245 527.014335 
L 895.122238 529.891285 
L 903.536224 538.823708 
L 907.743217 542.39522 
L 911.95021 544.28823 
L 916.157203 544.28823 
L 920.364196 542.649944 
L 924.571189 539.981173 
L 928.778182 537.065046 
L 932.985175 534.662074 
L 937.192168 533.335416 
L 941.399161 533.335416 
L 945.606154 534.564751 
L 949.813147 536.626764 
L 954.02014 538.941016 
L 958.227133 540.895769 
L 962.434126 542.000127 
L 966.641119 542.000127 
L 970.848112 540.93275 
L 975.055105 539.107099 
L 979.262098 537.019383 
L 983.469091 535.22379 
L 987.676084 534.191369 
L 991.883077 534.191369 
L 996.09007 535.22379 
L 1000.297063 537.019383 
L 1004.504056 539.107099 
L 1008.711049 540.93275 
L 1012.918042 542.000127 
L 1017.125035 542.000127 
L 1021.332028 540.895769 
L 1025.539021 538.941016 
L 1029.746014 536.626764 
L 1033.953007 534.564751 
L 1038.16 533.335416 
L 1042.366993 533.335416 
L 1046.573986 534.662074 
L 1050.780979 537.065046 
L 1054.987972 539.981173 
L 1059.194965 542.649944 
L 1063.401958 544.28823 
L 1067.608951 544.28823 
L 1071.815944 542.39522 
L 1076.022937 538.823708 
L 1084.436923 529.891285 
L 1088.643916 527.014335 
L 1092.850909 527.014335 
L 1097.057902 530.997839 
L 1101.264895 539.586851 
L 1105.471888 552.768176 
L 1109.678881 569.852098 
L 1113.885874 589.551876 
L 1118.092867 610.172011 
L 1122.29986 629.87179 
L 1126.506853 646.955711 
L 1130.713846 660.137036 
L 1134.920839 668.726048 
L 1139.127832 672.709552 
L 1143.334825 672.709552 
L 1147.541818 669.832602 
L 1155.955804 660.900179 
L 1160.162797 657.328667 
L 1164.36979 655.435658 
L 1168.576783 655.435658 
L 1172.783776 657.073944 
L 1176.990769 659.742714 
L 1181.197762 662.658842 
L 1185.404755 665.061813 
L 1189.611748 666.388471 
L 1193.818741 666.388471 
L 1198.025734 665.159137 
L 1202.232727 663.097123 
L 1206.43972 660.782871 
L 1210.646713 658.828118 
L 1214.853706 657.72376 
L 1219.060699 657.72376 
L 1223.267692 658.791137 
L 1227.474685 660.616788 
L 1231.681678 662.704505 
L 1235.888671 664.500097 
L 1240.095664 665.532519 
L 1244.302657 665.532519 
L 1248.50965 664.500097 
L 1252.716643 662.704505 
L 1256.923636 660.616788 
L 1261.130629 658.791137 
L 1265.337622 657.72376 
L 1269.544615 657.72376 
L 1273.751608 658.828118 
L 1277.958601 660.782871 
L 1282.165594 663.097123 
L 1286.372587 665.159137 
L 1290.57958 666.388471 
L 1294.786573 666.388471 
L 1298.993566 665.061813 
L 1303.200559 662.658842 
L 1307.407552 659.742714 
L 1311.614545 657.073944 
L 1315.821538 655.435658 
L 1320.028531 655.435658 
L 1324.235524 657.328667 
L 1328.442517 660.900179 
L 1336.856503 669.832602 
L 1341.063497 672.709552 
L 1345.27049 672.709552 
L 1349.477483 668.726048 
L 1353.684476 660.137036 
L 1357.891469 646.955711 
L 1362.098462 629.87179 
L 1366.305455 610.172011 
L 1366.305455 610.172011 
" style="fill:none;stroke:#ff7f0e;stroke-linecap:square;stroke-width:1.5;"/>
   </g>
   <g id="patch_14">
    <path d="M 45.52 684.92 
L 45.52 514.803887 
" style="fill:none;stroke:#000000;stroke-linecap:square;stroke-linejoin:miter;stroke-width:0.8;"/>
   </g>
   <g id="patch_15">
    <path d="M 1429.2 684.92 
L 1429.2 514.803887 
" style="fill:none;stroke:#000000;stroke-linecap:square;stroke-linejoin:miter;stroke-width:0.8;"/>
   </g>
   <g id="patch_16">
    <path d="M 45.52 684.92 
L 1429.2 684.92 
" style="fill:none;stroke:#000000;stroke-linecap:square;stroke-linejoin:miter;stroke-width:0.8;"/>
   </g>
   <g id="patch_17">
    <path d="M 45.52 514.803887 
L 1429.2 514.803887 
" style="fill:none;stroke:#000000;stroke-linecap:square;stroke-linejoin:miter;stroke-width:0.8;"/>
   </g>
   <g id="text_32">
    <!-- number of fourier terms: 10 -->
    <g transform="translate(616.62815 508.803887)scale(0.1728 -0.1728)">
     <use xlink:href="#DejaVuSans-110"/>
     <use x="63.378906" xlink:href="#DejaVuSans-117"/>
     <use x="126.757812" xlink:href="#DejaVuSans-109"/>
     <use x="224.169922" xlink:href="#DejaVuSans-98"/>
     <use x="287.646484" xlink:href="#DejaVuSans-101"/>
     <use x="349.169922" xlink:href="#DejaVuSans-114"/>
     <use x="390.283203" xlink:href="#DejaVuSans-32"/>
     <use x="422.070312" xlink:href="#DejaVuSans-111"/>
     <use x="483.251953" xlink:href="#DejaVuSans-102"/>
     <use x="518.457031" xlink:href="#DejaVuSans-32"/>
     <use x="550.244141" xlink:href="#DejaVuSans-102"/>
     <use x="585.449219" xlink:href="#DejaVuSans-111"/>
     <use x="646.630859" xlink:href="#DejaVuSans-117"/>
     <use x="710.009766" xlink:href="#DejaVuSans-114"/>
     <use x="751.123047" xlink:href="#DejaVuSans-105"/>
     <use x="778.90625" xlink:href="#DejaVuSans-101"/>
     <use x="840.429688" xlink:href="#DejaVuSans-114"/>
     <use x="881.542969" xlink:href="#DejaVuSans-32"/>
     <use x="913.330078" xlink:href="#DejaVuSans-116"/>
     <use x="952.539062" xlink:href="#DejaVuSans-101"/>
     <use x="1014.0625" xlink:href="#DejaVuSans-114"/>
     <use x="1055.160156" xlink:href="#DejaVuSans-109"/>
     <use x="1152.572266" xlink:href="#DejaVuSans-115"/>
     <use x="1204.671875" xlink:href="#DejaVuSans-58"/>
     <use x="1238.363281" xlink:href="#DejaVuSans-32"/>
     <use x="1270.150391" xlink:href="#DejaVuSans-49"/>
     <use x="1333.773438" xlink:href="#DejaVuSans-48"/>
    </g>
   </g>
  </g>
  <g id="text_33">
   <!-- Figure 3: Approximating a periodic function via Fourier series. -->
   <defs>
    <path d="M 9.8125 72.90625 
L 51.703125 72.90625 
L 51.703125 64.59375 
L 19.671875 64.59375 
L 19.671875 43.109375 
L 48.578125 43.109375 
L 48.578125 34.8125 
L 19.671875 34.8125 
L 19.671875 0 
L 9.8125 0 
z
" id="DejaVuSans-70"/>
    <path d="M 45.40625 27.984375 
Q 45.40625 37.75 41.375 43.109375 
Q 37.359375 48.484375 30.078125 48.484375 
Q 22.859375 48.484375 18.828125 43.109375 
Q 14.796875 37.75 14.796875 27.984375 
Q 14.796875 18.265625 18.828125 12.890625 
Q 22.859375 7.515625 30.078125 7.515625 
Q 37.359375 7.515625 41.375 12.890625 
Q 45.40625 18.265625 45.40625 27.984375 
z
M 54.390625 6.78125 
Q 54.390625 -7.171875 48.1875 -13.984375 
Q 42 -20.796875 29.203125 -20.796875 
Q 24.46875 -20.796875 20.265625 -20.09375 
Q 16.0625 -19.390625 12.109375 -17.921875 
L 12.109375 -9.1875 
Q 16.0625 -11.328125 19.921875 -12.34375 
Q 23.78125 -13.375 27.78125 -13.375 
Q 36.625 -13.375 41.015625 -8.765625 
Q 45.40625 -4.15625 45.40625 5.171875 
L 45.40625 9.625 
Q 42.625 4.78125 38.28125 2.390625 
Q 33.9375 0 27.875 0 
Q 17.828125 0 11.671875 7.65625 
Q 5.515625 15.328125 5.515625 27.984375 
Q 5.515625 40.671875 11.671875 48.328125 
Q 17.828125 56 27.875 56 
Q 33.9375 56 38.28125 53.609375 
Q 42.625 51.21875 45.40625 46.390625 
L 45.40625 54.6875 
L 54.390625 54.6875 
z
" id="DejaVuSans-103"/>
    <path d="M 34.1875 63.1875 
L 20.796875 26.90625 
L 47.609375 26.90625 
z
M 28.609375 72.90625 
L 39.796875 72.90625 
L 67.578125 0 
L 57.328125 0 
L 50.6875 18.703125 
L 17.828125 18.703125 
L 11.1875 0 
L 0.78125 0 
z
" id="DejaVuSans-65"/>
   </defs>
   <g transform="translate(285.418125 35.675625)scale(0.28 -0.28)">
    <use xlink:href="#DejaVuSans-70"/>
    <use x="57.410156" xlink:href="#DejaVuSans-105"/>
    <use x="85.193359" xlink:href="#DejaVuSans-103"/>
    <use x="148.669922" xlink:href="#DejaVuSans-117"/>
    <use x="212.048828" xlink:href="#DejaVuSans-114"/>
    <use x="253.130859" xlink:href="#DejaVuSans-101"/>
    <use x="314.654297" xlink:href="#DejaVuSans-32"/>
    <use x="346.441406" xlink:href="#DejaVuSans-51"/>
    <use x="410.064453" xlink:href="#DejaVuSans-58"/>
    <use x="443.755859" xlink:href="#DejaVuSans-32"/>
    <use x="475.542969" xlink:href="#DejaVuSans-65"/>
    <use x="543.951172" xlink:href="#DejaVuSans-112"/>
    <use x="607.427734" xlink:href="#DejaVuSans-112"/>
    <use x="670.904297" xlink:href="#DejaVuSans-114"/>
    <use x="711.986328" xlink:href="#DejaVuSans-111"/>
    <use x="773.121094" xlink:href="#DejaVuSans-120"/>
    <use x="832.300781" xlink:href="#DejaVuSans-105"/>
    <use x="860.083984" xlink:href="#DejaVuSans-109"/>
    <use x="957.496094" xlink:href="#DejaVuSans-97"/>
    <use x="1018.775391" xlink:href="#DejaVuSans-116"/>
    <use x="1057.984375" xlink:href="#DejaVuSans-105"/>
    <use x="1085.767578" xlink:href="#DejaVuSans-110"/>
    <use x="1149.146484" xlink:href="#DejaVuSans-103"/>
    <use x="1212.623047" xlink:href="#DejaVuSans-32"/>
    <use x="1244.410156" xlink:href="#DejaVuSans-97"/>
    <use x="1305.689453" xlink:href="#DejaVuSans-32"/>
    <use x="1337.476562" xlink:href="#DejaVuSans-112"/>
    <use x="1400.953125" xlink:href="#DejaVuSans-101"/>
    <use x="1462.476562" xlink:href="#DejaVuSans-114"/>
    <use x="1503.589844" xlink:href="#DejaVuSans-105"/>
    <use x="1531.373047" xlink:href="#DejaVuSans-111"/>
    <use x="1592.554688" xlink:href="#DejaVuSans-100"/>
    <use x="1656.03125" xlink:href="#DejaVuSans-105"/>
    <use x="1683.814453" xlink:href="#DejaVuSans-99"/>
    <use x="1738.794922" xlink:href="#DejaVuSans-32"/>
    <use x="1770.582031" xlink:href="#DejaVuSans-102"/>
    <use x="1805.787109" xlink:href="#DejaVuSans-117"/>
    <use x="1869.166016" xlink:href="#DejaVuSans-110"/>
    <use x="1932.544922" xlink:href="#DejaVuSans-99"/>
    <use x="1987.525391" xlink:href="#DejaVuSans-116"/>
    <use x="2026.734375" xlink:href="#DejaVuSans-105"/>
    <use x="2054.517578" xlink:href="#DejaVuSans-111"/>
    <use x="2115.699219" xlink:href="#DejaVuSans-110"/>
    <use x="2179.078125" xlink:href="#DejaVuSans-32"/>
    <use x="2210.865234" xlink:href="#DejaVuSans-118"/>
    <use x="2270.044922" xlink:href="#DejaVuSans-105"/>
    <use x="2297.828125" xlink:href="#DejaVuSans-97"/>
    <use x="2359.107422" xlink:href="#DejaVuSans-32"/>
    <use x="2390.894531" xlink:href="#DejaVuSans-70"/>
    <use x="2448.367188" xlink:href="#DejaVuSans-111"/>
    <use x="2509.548828" xlink:href="#DejaVuSans-117"/>
    <use x="2572.927734" xlink:href="#DejaVuSans-114"/>
    <use x="2614.041016" xlink:href="#DejaVuSans-105"/>
    <use x="2641.824219" xlink:href="#DejaVuSans-101"/>
    <use x="2703.347656" xlink:href="#DejaVuSans-114"/>
    <use x="2744.460938" xlink:href="#DejaVuSans-32"/>
    <use x="2776.248047" xlink:href="#DejaVuSans-115"/>
    <use x="2828.347656" xlink:href="#DejaVuSans-101"/>
    <use x="2889.871094" xlink:href="#DejaVuSans-114"/>
    <use x="2930.984375" xlink:href="#DejaVuSans-105"/>
    <use x="2958.767578" xlink:href="#DejaVuSans-101"/>
    <use x="3020.291016" xlink:href="#DejaVuSans-115"/>
    <use x="3072.390625" xlink:href="#DejaVuSans-46"/>
   </g>
  </g>
 </g>
 <defs>
  <clipPath id="pb880d07df6">
   <rect height="170.116113" width="1383.68" x="45.52" y="72"/>
  </clipPath>
  <clipPath id="pdcbbb8ae56">
   <rect height="170.116113" width="1383.68" x="45.52" y="293.401944"/>
  </clipPath>
  <clipPath id="p89ea307c57">
   <rect height="170.116113" width="1383.68" x="45.52" y="514.803887"/>
  </clipPath>
 </defs>
</svg>
